<?xml version="1.0" encoding="UTF-8"?>
<svg id="Capa_2" data-name="Capa 2" xmlns="http://www.w3.org/2000/svg" viewBox="0 0 111.94 111.94">
  <defs>
    <style>
      .cls-1 {
        fill: none;
        stroke: #181818;
        stroke-miterlimit: 10;
        stroke-width: 2px;
      }

      .cls-2 {
        fill: #181818;
      }
    </style>
  </defs>
  <g id="Capa_1-2" data-name="Capa 1">
    <g>
      <g>
        <path class="cls-2" d="m28.04,12.86v3.65h23.09v35.6h8.15V16.5h23.09v-7.29H28.04v3.65Z"/>
        <path class="cls-2" d="m14.91,58.11v35.6h34.86v-6.86h-26.26v-27.02h24.58c25.26,0,30.56.26,35.68,1.72,2.35.69,3.4,1.24,4.8,2.7,2.35,2.4,3.03,5.06,2.76,10.34-.59,10.08-4.75,12.23-23.77,12.27h-6.93v6.86h10.55c7.43,0,11.41-.21,13.58-.64,10.64-2.1,15.71-8.49,15.71-19.73,0-6.05-1.77-10.17-5.75-13.51-1.22-1.03-3.17-2.27-4.35-2.79l-2.17-.99,2.44-1.29c2.63-1.42,4.39-3.3,5.89-6.43.86-1.76,1-2.75.95-7.59,0-4.8-.14-5.92-1.04-8.11-1.4-3.3-3.98-5.92-7.47-7.55-4.48-2.1-7.92-2.57-18.7-2.57h-9.64v6.86h5.12c11.09.04,17.57,1.24,20.28,3.82,1.99,1.84,2.67,3.9,2.67,7.98,0,5.62-1.68,8.41-6.02,9.99-4.39,1.67-6.93,1.8-33.46,1.8h-25.72v-23.59h26.26v-6.86H14.91v35.6Z"/>
        <path class="cls-2" d="m51.13,82.78v22.09h8.15v-44.18h-8.15v22.09Z"/>
      </g>
      <rect class="cls-1" x="1" y="1" width="109.94" height="109.94"/>
    </g>
  </g>
</svg>